# xmcd
#
# Track frame offsets: 
#        150
#        10386
#        21495
#        34104
#        43413
#        56184
#        66892
#        84956
#        95740
#        109226
#        127270
#        136894
#        148911
#        161823
#        170358
#        188215
#        203270
#        220679
#
# Disc length: 3072 seconds
#
# Revision: 0
# Processed by: cddbd v1.5.2PL0 Copyright (c) Steve Scherf et al.
# Submitted via: ExactAudioCopy v0.99pb4
#
DISCID=100bfe12
DTITLE=Don Costa - Travelin Man
DYEAR=1900
DGENRE=Country
TTITLE0=travelin man
TTITLE1=pretty papers
TTITLE2=your cheatin heart
TTITLE3=I got stripes
TTITLE4=crystal chandeliers
TTITLE5=six days on the road
TTITLE6=she thinks i still care
TTITLE7=walk on by
TTITLE8=put your hand in the hand
TTITLE9=mexican girl
TTITLE10=that'll be the day
TTITLE11=roses are red
TTITLE12=walk a country mile
TTITLE13=kiss an angel good morning
TTITLE14=the last farewell
TTITLE15=touch the morning
TTITLE16=a pirate looks at 40
TTITLE17=oh boy
EXTD=
EXTT0=
EXTT1=
EXTT2=
EXTT3=
EXTT4=
EXTT5=
EXTT6=
EXTT7=
EXTT8=
EXTT9=
EXTT10=
EXTT11=
EXTT12=
EXTT13=
EXTT14=
EXTT15=
EXTT16=
EXTT17=
PLAYORDER=
